<?xml version="1.0" standalone="no"?>
<!DOCTYPE svg PUBLIC "-//W3C//DTD SVG 20010904//EN"
 "http://www.w3.org/TR/2001/REC-SVG-20010904/DTD/svg10.dtd">
<svg version="1.0" xmlns="http://www.w3.org/2000/svg"
 width="1024.000000pt" height="1024.000000pt" viewBox="0 0 1024.000000 1024.000000"
 preserveAspectRatio="xMidYMid meet">

<rect x="8" y="8" width="1008" height="1008" rx="170" fill="#f8fafc"/>

<g transform="translate(0.000000,1024.000000) scale(0.100000,-0.100000)"
fill="#0f172a" stroke="none">
<path d="M5015 7464 c-274 -27 -551 -89 -750 -169 -115 -47 -305 -143 -405
-206 -102 -64 -220 -150 -220 -160 0 -4 34 -28 76 -55 l77 -47 56 32 c487 279
1101 347 1616 180 477 -156 858 -526 1011 -984 26 -79 74 -300 74 -344 0 -4
33 -13 73 -20 87 -16 248 -71 331 -113 208 -104 280 -195 211 -263 -36 -37
-77 -32 -170 20 -276 157 -537 242 -717 233 -69 -3 -82 -6 -99 -27 -25 -31
-24 -81 1 -109 22 -24 31 -26 137 -42 145 -21 343 -102 488 -200 102 -69 241
-195 270 -244 14 -24 25 -54 25 -68 0 -58 -73 -103 -122 -77 -13 7 -68 53
-123 102 -143 128 -260 208 -420 287 -164 81 -207 92 -248 60 -21 -17 -27 -30
-27 -59 0 -44 29 -76 100 -111 57 -29 174 -107 271 -182 l76 -58 -4 -57 c-2
-32 -11 -113 -19 -181 -71 -587 -420 -1128 -932 -1445 -392 -243 -784 -338
-1272 -308 -155 10 -384 40 -428 56 -8 3 -12 0 -10 -7 7 -23 339 -182 458
-220 271 -87 400 -108 690 -115 248 -6 379 6 587 53 475 106 906 350 1249 707
399 414 630 930 685 1531 43 458 -88 1000 -341 1416 -125 206 -329 442 -520
602 -115 97 -353 257 -476 320 -247 128 -514 213 -788 253 -106 15 -391 27
-471 19z"/>
<path d="M3120 6784 c-89 -30 -165 -84 -221 -159 -56 -75 -80 -143 -86 -250
-9 -149 33 -269 131 -373 66 -71 136 -116 228 -146 129 -42 124 -43 137 10 24
96 115 258 182 325 17 17 16 20 -21 67 -60 75 -111 104 -191 110 -57 4 -73 1
-102 -17 -45 -27 -78 -27 -105 2 -29 31 -30 95 -2 130 45 57 180 95 274 78 75
-14 132 -43 206 -105 l64 -53 71 46 c38 25 72 47 74 48 2 2 -13 28 -34 58 -48
70 -147 162 -211 197 -117 63 -266 75 -394 32z"/>
<path d="M4432 6250 c-175 -41 -204 -288 -43 -369 58 -29 89 -33 145 -17 56
16 117 70 135 119 39 103 -26 230 -133 262 -54 16 -56 16 -104 5z"/>
<path d="M6056 6248 c-134 -36 -176 -234 -70 -328 44 -38 73 -50 125 -50 97 0
189 94 189 192 -1 76 -71 166 -147 187 -44 12 -45 12 -97 -1z"/>
<path d="M5341 5874 c-96 -48 -175 -188 -156 -276 23 -105 97 -174 199 -187
47 -6 51 -9 64 -43 14 -36 13 -41 -14 -95 -43 -85 -83 -112 -190 -128 -74 -11
-92 -17 -111 -40 -27 -31 -28 -46 -8 -89 56 -117 269 -87 407 57 l48 50 74
-70 c85 -82 144 -107 243 -105 64 1 93 10 131 45 56 51 5 147 -80 147 -84 1
-153 40 -202 115 -49 73 -27 155 41 155 100 0 202 109 203 217 0 59 -32 126
-90 188 -79 83 -87 85 -312 85 -190 0 -195 -1 -247 -26z"/>
<path d="M2800 5816 c-24 -64 -61 -201 -79 -296 -39 -206 -45 -264 -44 -505 0
-198 3 -262 21 -365 45 -265 102 -441 217 -675 102 -205 186 -325 325 -466
125 -125 235 -201 400 -275 144 -64 243 -96 391 -126 154 -31 497 -33 659 -4
569 101 996 442 1116 891 20 75 27 306 11 395 l-7 45 77 35 c123 55 253 146
391 272 24 22 42 41 40 43 -18 17 -170 125 -176 125 -4 0 -39 -23 -77 -51
-335 -245 -885 -295 -1261 -115 l-91 44 -54 -40 c-73 -55 -207 -169 -243 -207
l-29 -30 24 -5 c13 -2 58 -10 99 -16 338 -55 599 -267 670 -546 42 -163 16
-314 -74 -443 -30 -42 -88 -81 -121 -81 -29 0 -74 30 -89 58 -8 15 -17 54 -21
-87 -18 -145 -108 -293 -238 -391 -121 -91 -235 -135 -481 -185 -168 -34 -264 -63 -374
115 -374 172 -652 581 -678 997 -5 90 4 235 22 333 6 31 4 33 -77 75 -48 26
-111 71 -154 112 -40 37 -76 67 -79 67 -4 0 -11 -11 -16 -24z"/>
<path d="M4686 5559 c-75 -11 -268 -62 -351 -94 -145 -54 -378 -187 -452 -258
-44 -41 -46 -92 -6 -132 39 -38 79 -30 185 38 95 62 246 140 350 181 100 39
321 93 416 102 67 5 89 12 112 30 46 39 45 87 -4 126 -24 20 -142 23 -250 7z"/>
<path d="M4790 5244 c-218 -74 -433 -208 -613 -383 -150 -146 -166 -175 -132
-241 16 -31 70 -55 101 -44 10 4 81 67 156 141 156 151 280 239 474 334 66 32
125 59 131 59 6 0 22 11 37 25 37 34 35 76 -5 109 -38 32 -55 32 -149 0z"/>
</g>
</svg>
